<svg xmlns="http://www.w3.org/2000/svg" width="37.305" height="33.16" viewBox="0 0 37.305 33.16">
  <path id="Icon_awesome-shopping-cart" data-name="Icon awesome-shopping-cart" d="M34.2,19.515,37.266,6.044a1.554,1.554,0,0,0-1.516-1.9H10.311l-.594-2.9A1.554,1.554,0,0,0,8.195,0H1.554A1.554,1.554,0,0,0,0,1.554V2.591A1.554,1.554,0,0,0,1.554,4.145H6.08l4.55,22.243a3.627,3.627,0,1,0,4.342.555H28.55a3.626,3.626,0,1,0,4.119-.674l.357-1.572a1.554,1.554,0,0,0-1.516-1.9H14.126L13.7,20.725H32.688A1.554,1.554,0,0,0,34.2,19.515Z" fill="#fff"/>
</svg>
