<svg xmlns="http://www.w3.org/2000/svg" width="29.5" height="28.25" viewBox="0 0 29.5 28.25">
  <g id="Icon_feather-shopping-cart" data-name="Icon feather-shopping-cart" transform="translate(-0.5 -0.5)">
    <path id="Path_7" data-name="Path 7" d="M14.5,31.25A1.25,1.25,0,1,1,13.25,30,1.25,1.25,0,0,1,14.5,31.25Z" transform="translate(-1.75 -4.75)" fill="none" stroke="#fff" stroke-linecap="round" stroke-linejoin="round" stroke-width="2"/>
    <path id="Path_8" data-name="Path 8" d="M31,31.25A1.25,1.25,0,1,1,29.75,30,1.25,1.25,0,0,1,31,31.25Z" transform="translate(-4.5 -4.75)" fill="none" stroke="#fff" stroke-linecap="round" stroke-linejoin="round" stroke-width="2"/>
    <path id="Path_9" data-name="Path 9" d="M1.5,1.5h5L9.85,18.237a2.5,2.5,0,0,0,2.5,2.013H24.5A2.5,2.5,0,0,0,27,18.237L29,7.75H7.75" fill="none" stroke="#fff" stroke-linecap="round" stroke-linejoin="round" stroke-width="2"/>
  </g>
</svg>
