<svg xmlns="http://www.w3.org/2000/svg" width="51.219" height="44.75" viewBox="0 0 51.219 44.75">
  <path id="Path_77" data-name="Path 77" d="M45.768-8.991A15.566,15.566,0,0,1,50.662-1.6a14.622,14.622,0,0,1,0,7.941,15.526,15.526,0,0,1-3.8,6.842L29.386,30.965a5.307,5.307,0,0,1-7.592,0L4.314,13.184a15.526,15.526,0,0,1-3.8-6.842A14,14,0,0,1,.618-1.6,14.9,14.9,0,0,1,5.412-8.991a12.976,12.976,0,0,1,6.493-3,15.329,15.329,0,0,1,7.342.6,15.844,15.844,0,0,1,6.343,3.9,15.844,15.844,0,0,1,6.343-3.9,15.329,15.329,0,0,1,7.342-.6A12.976,12.976,0,0,1,45.768-8.991ZM43.47,9.788a10.727,10.727,0,0,0,2.547-4.645A9.763,9.763,0,0,0,45.967-.3a9.867,9.867,0,0,0-3.3-4.994,9.233,9.233,0,0,0-6.842-2.1,10.161,10.161,0,0,0-6.743,3.2L25.59-.7l-3.5-3.5a10.161,10.161,0,0,0-6.743-3.2A9.233,9.233,0,0,0,8.509-5.3,9.867,9.867,0,0,0,5.213-.3a9.763,9.763,0,0,0-.05,5.444A10.727,10.727,0,0,0,7.71,9.788L25.29,27.568q.3.4.6,0Z" transform="translate(0.008 12.187)"/>
</svg>
