<svg xmlns="http://www.w3.org/2000/svg" width="26" height="26" viewBox="0 0 26 26">
  <path id="Icon_awesome-phone-alt" data-name="Icon awesome-phone-alt" d="M25.258,18.373l-5.688-2.438a1.219,1.219,0,0,0-1.422.35L15.63,19.363a18.823,18.823,0,0,1-9-9L9.709,7.846a1.216,1.216,0,0,0,.35-1.422L7.622.737a1.227,1.227,0,0,0-1.4-.706L.945,1.25A1.219,1.219,0,0,0,0,2.438,23.56,23.56,0,0,0,23.563,26a1.219,1.219,0,0,0,1.188-.945l1.219-5.281a1.233,1.233,0,0,0-.711-1.4Z" transform="translate(0 0)" fill="#fff"/>
</svg>
